<mxfile host="app.diagrams.net" agent="Mozilla/5.0 (Windows NT 10.0; Win64; x64) AppleWebKit/537.36 (KHTML, like Gecko) Chrome/137.0.0.0 Safari/537.36 Edg/137.0.0.0" version="27.0.9">
  <diagram name="Page-1" id="_zzzihhYevEhl6vFrGmA">
    <mxGraphModel dx="1017" dy="506" grid="1" gridSize="10" guides="1" tooltips="1" connect="1" arrows="1" fold="1" page="1" pageScale="1" pageWidth="850" pageHeight="1100" math="0" shadow="0">
      <root>
        <mxCell id="0" />
        <mxCell id="1" parent="0" />
        <mxCell id="a1__KzKPftsD1nq5aoVm-2" value="Erfolgreichsten Filme- Sammlung" style="swimlane;whiteSpace=wrap;html=1;" parent="1" vertex="1">
          <mxGeometry x="130" y="80" width="440" height="240" as="geometry" />
        </mxCell>
        <mxCell id="a1__KzKPftsD1nq5aoVm-5" value="" style="rounded=1;whiteSpace=wrap;html=1;" parent="a1__KzKPftsD1nq5aoVm-2" vertex="1">
          <mxGeometry x="20" y="40" width="70" height="70" as="geometry" />
        </mxCell>
        <mxCell id="a1__KzKPftsD1nq5aoVm-4" value="Title&lt;div&gt;Beschreibung&lt;/div&gt;" style="text;html=1;align=center;verticalAlign=middle;whiteSpace=wrap;rounded=0;" parent="a1__KzKPftsD1nq5aoVm-2" vertex="1">
          <mxGeometry x="25" y="80" width="60" height="30" as="geometry" />
        </mxCell>
        <mxCell id="a1__KzKPftsD1nq5aoVm-6" value="" style="rounded=1;whiteSpace=wrap;html=1;" parent="a1__KzKPftsD1nq5aoVm-2" vertex="1">
          <mxGeometry x="130" y="40" width="70" height="70" as="geometry" />
        </mxCell>
        <mxCell id="a1__KzKPftsD1nq5aoVm-7" value="Title&lt;div&gt;Beschreibung&lt;/div&gt;" style="text;html=1;align=center;verticalAlign=middle;whiteSpace=wrap;rounded=0;" parent="a1__KzKPftsD1nq5aoVm-2" vertex="1">
          <mxGeometry x="135" y="80" width="60" height="30" as="geometry" />
        </mxCell>
        <mxCell id="a1__KzKPftsD1nq5aoVm-8" value="" style="rounded=1;whiteSpace=wrap;html=1;" parent="a1__KzKPftsD1nq5aoVm-2" vertex="1">
          <mxGeometry x="230" y="40" width="70" height="70" as="geometry" />
        </mxCell>
        <mxCell id="a1__KzKPftsD1nq5aoVm-9" value="Title&lt;div&gt;Beschreibung&lt;/div&gt;" style="text;html=1;align=center;verticalAlign=middle;whiteSpace=wrap;rounded=0;" parent="a1__KzKPftsD1nq5aoVm-2" vertex="1">
          <mxGeometry x="235" y="80" width="60" height="30" as="geometry" />
        </mxCell>
        <mxCell id="a1__KzKPftsD1nq5aoVm-10" value="" style="rounded=1;whiteSpace=wrap;html=1;" parent="a1__KzKPftsD1nq5aoVm-2" vertex="1">
          <mxGeometry x="320" y="40" width="70" height="70" as="geometry" />
        </mxCell>
        <mxCell id="a1__KzKPftsD1nq5aoVm-11" value="Title&lt;div&gt;Beschreibung&lt;/div&gt;" style="text;html=1;align=center;verticalAlign=middle;whiteSpace=wrap;rounded=0;" parent="a1__KzKPftsD1nq5aoVm-2" vertex="1">
          <mxGeometry x="325" y="80" width="60" height="30" as="geometry" />
        </mxCell>
        <mxCell id="a1__KzKPftsD1nq5aoVm-14" value="" style="rounded=1;whiteSpace=wrap;html=1;" parent="a1__KzKPftsD1nq5aoVm-2" vertex="1">
          <mxGeometry x="15" y="130" width="70" height="70" as="geometry" />
        </mxCell>
        <mxCell id="a1__KzKPftsD1nq5aoVm-15" value="Title&lt;div&gt;Beschreibung&lt;/div&gt;" style="text;html=1;align=center;verticalAlign=middle;whiteSpace=wrap;rounded=0;" parent="a1__KzKPftsD1nq5aoVm-2" vertex="1">
          <mxGeometry x="20" y="170" width="60" height="30" as="geometry" />
        </mxCell>
        <mxCell id="a1__KzKPftsD1nq5aoVm-16" value="" style="rounded=1;whiteSpace=wrap;html=1;" parent="a1__KzKPftsD1nq5aoVm-2" vertex="1">
          <mxGeometry x="125" y="130" width="70" height="70" as="geometry" />
        </mxCell>
        <mxCell id="a1__KzKPftsD1nq5aoVm-17" value="Title&lt;div&gt;Beschreibung&lt;/div&gt;" style="text;html=1;align=center;verticalAlign=middle;whiteSpace=wrap;rounded=0;" parent="a1__KzKPftsD1nq5aoVm-2" vertex="1">
          <mxGeometry x="130" y="170" width="60" height="30" as="geometry" />
        </mxCell>
        <mxCell id="a1__KzKPftsD1nq5aoVm-18" value="" style="rounded=1;whiteSpace=wrap;html=1;" parent="a1__KzKPftsD1nq5aoVm-2" vertex="1">
          <mxGeometry x="225" y="130" width="70" height="70" as="geometry" />
        </mxCell>
        <mxCell id="a1__KzKPftsD1nq5aoVm-19" value="Title&lt;div&gt;Beschreibung&lt;/div&gt;" style="text;html=1;align=center;verticalAlign=middle;whiteSpace=wrap;rounded=0;" parent="a1__KzKPftsD1nq5aoVm-2" vertex="1">
          <mxGeometry x="230" y="170" width="60" height="30" as="geometry" />
        </mxCell>
        <mxCell id="a1__KzKPftsD1nq5aoVm-20" value="" style="rounded=1;whiteSpace=wrap;html=1;" parent="a1__KzKPftsD1nq5aoVm-2" vertex="1">
          <mxGeometry x="315" y="130" width="70" height="70" as="geometry" />
        </mxCell>
        <mxCell id="a1__KzKPftsD1nq5aoVm-21" value="Title&lt;div&gt;Beschreibung&lt;/div&gt;" style="text;html=1;align=center;verticalAlign=middle;whiteSpace=wrap;rounded=0;" parent="a1__KzKPftsD1nq5aoVm-2" vertex="1">
          <mxGeometry x="320" y="170" width="60" height="30" as="geometry" />
        </mxCell>
        <mxCell id="MGeYcxidXWFjb2yCIETl-1" value="Cover" style="text;html=1;align=center;verticalAlign=middle;whiteSpace=wrap;rounded=0;" vertex="1" parent="a1__KzKPftsD1nq5aoVm-2">
          <mxGeometry x="25" y="40" width="60" height="30" as="geometry" />
        </mxCell>
        <mxCell id="MGeYcxidXWFjb2yCIETl-2" value="Cover" style="text;html=1;align=center;verticalAlign=middle;whiteSpace=wrap;rounded=0;" vertex="1" parent="a1__KzKPftsD1nq5aoVm-2">
          <mxGeometry x="135" y="40" width="60" height="30" as="geometry" />
        </mxCell>
        <mxCell id="MGeYcxidXWFjb2yCIETl-3" value="Cover" style="text;html=1;align=center;verticalAlign=middle;whiteSpace=wrap;rounded=0;" vertex="1" parent="a1__KzKPftsD1nq5aoVm-2">
          <mxGeometry x="235" y="40" width="60" height="30" as="geometry" />
        </mxCell>
        <mxCell id="MGeYcxidXWFjb2yCIETl-4" value="Cover" style="text;html=1;align=center;verticalAlign=middle;whiteSpace=wrap;rounded=0;" vertex="1" parent="a1__KzKPftsD1nq5aoVm-2">
          <mxGeometry x="325" y="40" width="60" height="30" as="geometry" />
        </mxCell>
        <mxCell id="MGeYcxidXWFjb2yCIETl-5" value="Cover" style="text;html=1;align=center;verticalAlign=middle;whiteSpace=wrap;rounded=0;" vertex="1" parent="a1__KzKPftsD1nq5aoVm-2">
          <mxGeometry x="25" y="130" width="60" height="30" as="geometry" />
        </mxCell>
        <mxCell id="MGeYcxidXWFjb2yCIETl-6" value="Cover" style="text;html=1;align=center;verticalAlign=middle;whiteSpace=wrap;rounded=0;" vertex="1" parent="a1__KzKPftsD1nq5aoVm-2">
          <mxGeometry x="130" y="130" width="60" height="30" as="geometry" />
        </mxCell>
        <mxCell id="MGeYcxidXWFjb2yCIETl-7" value="Cover" style="text;html=1;align=center;verticalAlign=middle;whiteSpace=wrap;rounded=0;" vertex="1" parent="a1__KzKPftsD1nq5aoVm-2">
          <mxGeometry x="230" y="130" width="60" height="30" as="geometry" />
        </mxCell>
        <mxCell id="MGeYcxidXWFjb2yCIETl-8" value="Cover" style="text;html=1;align=center;verticalAlign=middle;whiteSpace=wrap;rounded=0;" vertex="1" parent="a1__KzKPftsD1nq5aoVm-2">
          <mxGeometry x="325" y="130" width="60" height="30" as="geometry" />
        </mxCell>
      </root>
    </mxGraphModel>
  </diagram>
</mxfile>
